Coordinates
version=1
nRows=8
nColumns=63
inDegrees=yes

Units are S.I. units (second, meters, Newtons, ...)
If the header above contains a line with 'inDegrees', this indicates whether rotational values are in degrees (yes) or radians (no).

endheader
time	pelvis_tilt	pelvis_list	pelvis_rotation	pelvis_tx	pelvis_ty	pelvis_tz	hip_flexion_r	hip_adduction_r	hip_rotation_r	knee_angle_r	knee_angle_r_beta	ankle_angle_r	subtalar_angle_r	mtp_angle_r	hip_flexion_l	hip_adduction_l	hip_rotation_l	knee_angle_l	knee_angle_l_beta	ankle_angle_l	subtalar_angle_l	mtp_angle_l	L5_S1_Flex_Ext	L5_S1_Lat_Bending	L5_S1_axial_rotation	L4_L5_Flex_Ext	L4_L5_Lat_Bending	L4_L5_axial_rotation	L3_L4_Flex_Ext	L3_L4_Lat_Bending	L3_L4_axial_rotation	L2_L3_Flex_Ext	L2_L3_Lat_Bending	L2_L3_axial_rotation	L1_L2_Flex_Ext	L1_L2_Lat_Bending	L1_L2_axial_rotation	L1_T12_Flex_Ext	L1_T12_Lat_Bending	L1_T12_axial_rotation	Abs_r3	Abs_r2	Abs_r1	Abs_t1	Abs_t2	neck_flexion	neck_bending	neck_rotation	arm_flex_r	arm_add_r	arm_rot_r	elbow_flex_r	pro_sup_r	wrist_flex_r	wrist_dev_r	arm_flex_l	arm_add_l	arm_rot_l	elbow_flex_l	pro_sup_l	wrist_flex_l	wrist_dev_l
      2.54237288	     -1.09380740	     -1.63786521	     85.58271539	      0.11332640	      0.96576450	      0.32118311	     -2.35295583	      0.12999444	    -19.22736113	      7.00774272	      0.12230818	     18.30625162	     18.34302441	      0.00000000	     -2.29874490	      1.50652715	      1.97008234	      4.34994484	      0.07592086	      7.25033371	    -18.80990091	      0.00000000	     -0.15424190	      0.05702218	      0.54523150	     -0.28644264	      0.07583950	      0.57930847	     -0.25340402	      0.13864373	      0.57930847	     -0.17628307	      0.13864373	      0.47707756	     -0.14322903	      0.11627963	      0.44300059	     -0.08813382	      0.08832736	      0.40892362	     -1.10173448	      0.64504629	      3.03241402	      0.00000000	      0.00000000	     15.56914609	     -1.06163041	     -7.38841832	     17.70835296	     -7.37405845	    162.98642038	      0.96574369	      2.41317069	     -8.38425145	    -11.71099161	     14.88877716	    -10.33453812	    181.67217901	      2.80747822	     11.04646615	     -7.21421102	     -5.73040538
      2.55932203	     -1.13189454	     -1.60290234	     85.92464933	      0.11315543	      0.96600957	      0.32170426	     -2.56118708	      0.20612593	    -19.30054464	      6.59629436	      0.11512705	     18.33816961	     18.37216943	      0.00000000	     -2.06385664	      1.50969995	      2.21046755	      4.75603595	      0.08300849	      7.14602817	    -18.74616183	      0.00000000	     -0.16244150	      0.04045190	      0.52895702	     -0.30167011	      0.05380102	      0.56201684	     -0.26687514	      0.09835474	      0.56201684	     -0.18565439	      0.09835474	      0.46283739	     -0.15084318	      0.08248951	      0.42977758	     -0.09281907	      0.06265999	      0.39671777	     -1.16030338	      0.45759994	      2.94190027	      0.00000000	      0.00000000	     15.49978007	     -0.68683949	     -7.51291943	     17.81900514	     -7.17837155	    162.92541443	      0.90208353	      2.42339497	     -7.75396790	    -11.59579724	     15.23716959	    -10.43559798	    181.45283095	      2.86837259	      9.52215933	     -6.30186014	     -5.95650925
      2.57627119	     -1.23234607	     -1.62079557	     86.18466942	      0.11319258	      0.96615954	      0.32211899	     -2.74759794	      0.23264342	    -19.12597899	      6.11700774	      0.10676193	     18.42770457	     18.24404071	      0.00000000	     -1.80666389	      1.58442149	      2.34167604	      5.16329786	      0.09011655	      6.89861237	    -18.69082410	      0.00000000	     -0.16647625	      0.01531487	      0.49802426	     -0.30916305	      0.02036878	      0.52915078	     -0.27350384	      0.03723658	      0.52915078	     -0.19026571	      0.03723658	      0.43577123	     -0.15458985	      0.03123009	      0.40464471	     -0.09512453	      0.02372274	      0.37351819	     -1.18912323	      0.17324489	      2.76986152	      0.00000000	      0.00000000	     15.57226475	     -0.30794963	     -7.56431470	     17.98230677	     -6.88355683	    162.88655663	      0.83786554	      2.42744248	     -7.21363698	    -11.55276683	     15.49278909	    -10.69466034	    179.21898236	      2.87551045	      8.94291680	     -5.31391681	     -6.37332582
      2.59322034	     -1.19530732	     -1.69875005	     86.22136355	      0.11377084	      0.96620519	      0.32250158	     -2.70793565	      0.34131092	    -19.04950069	      5.97851507	      0.10434477	     18.56694163	     18.27532308	      0.00000000	     -1.70863257	      1.49630234	      2.39067552	      5.26113323	      0.09182410	      6.65974884	    -18.58943059	      0.00000000	     -0.16321974	      0.00677416	      0.50940538	     -0.30311538	      0.00900963	      0.54124322	     -0.26815371	      0.01647069	      0.54124322	     -0.18654384	      0.01647069	      0.44572971	     -0.15156585	      0.01381386	      0.41389187	     -0.09326376	      0.01049317	      0.38205404	     -1.16586230	      0.07663062	      2.83315990	      0.00000000	      0.00000000	     15.52986823	     -0.23620011	     -7.58230638	     18.11939330	     -6.58445211	    162.87502936	      0.77502864	      2.41581994	     -7.18115581	    -11.62637625	     15.78262930	    -10.83852919	    179.08164843	      2.76077981	      8.81274427	     -5.26775792	     -6.36982365
      2.61016949	     -1.44979308	     -1.93807691	     86.73647686	      0.11364377	      0.96597083	      0.32236760	     -2.99457555	      0.33378263	    -18.78900781	      4.91325883	      0.08575254	     18.33158832	     17.84578573	      0.00000000	     -1.02682955	      1.70400559	      2.72466535	      6.10102458	      0.10648297	      6.43728464	    -18.54704552	      0.00000000	     -0.13146593	     -0.03957130	      0.37934871	     -0.24414537	     -0.05262983	      0.40305800	     -0.21598537	     -0.09621366	      0.40305800	     -0.15025241	     -0.09621366	      0.33193012	     -0.12207926	     -0.08069380	      0.30822082	     -0.07511963	     -0.06129594	      0.28451153	     -0.93904797	     -0.44763846	      2.10982371	      0.00000000	      0.00000000	     15.83767655	      0.45670235	     -7.76603760	     18.29256422	     -6.07072689	    162.38689227	      0.74613285	      2.29800366	     -6.38678188	    -12.41901029	     15.86136668	    -11.35799439	    175.75400703	      2.71972771	      6.18824211	     -3.08442305	     -6.98003452
      2.62711864	     -1.61665189	     -2.21042423	     86.87753227	      0.11391631	      0.96569373	      0.32253706	     -2.99083717	      0.29739442	    -18.63719539	      4.29277150	      0.07492300	     18.15004010	     17.69130509	      0.00000000	     -0.62152209	      1.82826283	      2.83912601	      6.33238147	      0.11052091	      6.21041246	    -18.50388169	      0.00000000	     -0.10443398	     -0.06866630	      0.33302162	     -0.19394435	     -0.09132618	      0.35383547	     -0.17157459	     -0.16695524	      0.35383547	     -0.11935760	     -0.16695524	      0.29139392	     -0.09697739	     -0.14002432	      0.27058007	     -0.05967358	     -0.10636410	      0.24976621	     -0.74596148	     -0.77676692	      1.85216634	      0.00000000	      0.00000000	     16.23432324	      0.67119475	     -7.92653642	     18.53128584	     -5.59290160	    162.61522812	      0.69226399	      2.39559026	     -6.24497926	    -13.19397911	     16.15843255	    -11.60901303	    174.76141032	      2.71374236	      5.59526128	     -2.67847754	     -7.06239078
      2.64406780	     -1.51458054	     -2.42076049	     87.26222565	      0.11363437	      0.96543231	      0.32254488	     -3.12717255	      0.56934293	    -18.53338829	      3.61853158	      0.06315529	     17.84174557	     17.14636360	      0.00000000	     -0.26292381	      1.66035841	      3.41250544	      6.60452617	      0.11527073	      6.46443238	    -18.40918202	      0.00000000	     -0.08363288	     -0.05975089	      0.21622050	     -0.15531461	     -0.07946869	      0.22973428	     -0.13740045	     -0.14527832	      0.22973428	     -0.09558401	     -0.14527832	      0.18919294	     -0.07766149	     -0.12184402	      0.17567916	     -0.04778783	     -0.09255414	      0.16216538	     -0.59738127	     -0.67591407	      1.20255356	      0.00000000	      0.00000000	     16.42372170	      0.67164415	     -7.75347161	     18.91413744	     -5.15259338	    164.34802748	      0.64574271	      2.44724241	     -6.82645873	    -14.12257847	     16.35503904	    -11.78803515	    171.31597033	      2.81488984	      5.30990140	     -1.81791673	     -7.36439242
      2.66101695	     -1.47891361	     -2.64779024	     87.35876889	      0.11351665	      0.96517734	      0.32272919	     -3.14317588	      0.69700520	    -18.25890308	      3.08812722	      0.05389799	     17.39538427	     16.73581653	      0.00000000	      0.02466560	      1.58763145	      3.62198660	      6.63769010	      0.11584955	      6.91307618	    -18.31134771	      0.00000000	     -0.06153727	     -0.05447119	      0.15757802	     -0.11428086	     -0.07244668	      0.16742665	     -0.10109958	     -0.13244126	      0.16742665	     -0.07033094	     -0.13244126	      0.13788077	     -0.05714351	     -0.11107765	      0.12803214	     -0.03516239	     -0.08437588	      0.11818352	     -0.43955455	     -0.61618901	      0.87640169	      0.00000000	      0.00000000	     16.65526241	      0.68753415	     -7.64156689	     19.36269177	     -4.68491718	    166.83899879	      0.58688159	      2.55536586	     -8.07377476	    -14.88325664	     16.72268005	    -11.83993306	    169.62822009	      3.04827808	      6.00945188	     -1.99326980	     -7.61793779
